<svg width="392" height="92" viewBox="0 0 392 92" fill="none" xmlns="http://www.w3.org/2000/svg">
<path d="M0 49H392" stroke="#3451A1" stroke-width="0.5"/>
<path d="M3 27V65.5" stroke="#3451A1" stroke-width="0.5"/>
<path d="M7 30V64.5" stroke="#3451A1" stroke-width="0.5"/>
<path d="M11 28V71" stroke="#3451A1" stroke-width="0.5"/>
<path d="M15 7V89.5" stroke="#3451A1" stroke-width="0.5"/>
<path d="M19 2V92" stroke="#3451A1" stroke-width="0.5"/>
<path d="M45 27V65.5" stroke="#3451A1" stroke-width="0.5"/>
<path d="M49 30V64.5" stroke="#3451A1" stroke-width="0.5"/>
<path d="M53 28V71" stroke="#3451A1" stroke-width="0.5"/>
<path d="M57 7V89.5" stroke="#3451A1" stroke-width="0.5"/>
<path d="M61 2V92" stroke="#3451A1" stroke-width="0.5"/>
<path d="M103 27V65.5" stroke="#3451A1" stroke-width="0.5"/>
<path d="M99 30V64.5" stroke="#3451A1" stroke-width="0.5"/>
<path d="M95 28V71" stroke="#3451A1" stroke-width="0.5"/>
<path d="M91 7V89.5" stroke="#3451A1" stroke-width="0.5"/>
<path d="M87 2V92" stroke="#3451A1" stroke-width="0.5"/>
<path d="M124 27V65.5" stroke="#3451A1" stroke-width="0.5"/>
<path d="M120 30V64.5" stroke="#3451A1" stroke-width="0.5"/>
<path d="M116 28V71" stroke="#3451A1" stroke-width="0.5"/>
<path d="M112 7V89.5" stroke="#3451A1" stroke-width="0.5"/>
<path d="M108 2V92" stroke="#3451A1" stroke-width="0.5"/>
<path d="M24 27V65.5" stroke="#3451A1" stroke-width="0.5"/>
<path d="M28 30V64.5" stroke="#3451A1" stroke-width="0.5"/>
<path d="M32 28V71" stroke="#3451A1" stroke-width="0.5"/>
<path d="M36 7V89.5" stroke="#3451A1" stroke-width="0.5"/>
<path d="M40 2V92" stroke="#3451A1" stroke-width="0.5"/>
<path d="M66 27V65.5" stroke="#3451A1" stroke-width="0.5"/>
<path d="M70 30V64.5" stroke="#3451A1" stroke-width="0.5"/>
<path d="M74 28V71" stroke="#3451A1" stroke-width="0.5"/>
<path d="M78 7V89.5" stroke="#3451A1" stroke-width="0.5"/>
<path d="M82 2V92" stroke="#3451A1" stroke-width="0.5"/>
<path d="M129 26V64.5" stroke="#3451A1" stroke-width="0.5"/>
<path d="M133 29V63.5" stroke="#3451A1" stroke-width="0.5"/>
<path d="M137 27V70" stroke="#3451A1" stroke-width="0.5"/>
<path d="M141 6V88.5" stroke="#3451A1" stroke-width="0.5"/>
<path d="M145 1V91" stroke="#3451A1" stroke-width="0.5"/>
<path d="M171 26V64.5" stroke="#3451A1" stroke-width="0.5"/>
<path d="M175 29V63.5" stroke="#3451A1" stroke-width="0.5"/>
<path d="M179 27V70" stroke="#3451A1" stroke-width="0.5"/>
<path d="M183 6V88.5" stroke="#3451A1" stroke-width="0.5"/>
<path d="M187 1V91" stroke="#3451A1" stroke-width="0.5"/>
<path d="M229 26V64.5" stroke="#3451A1" stroke-width="0.5"/>
<path d="M225 29V63.5" stroke="#3451A1" stroke-width="0.5"/>
<path d="M221 27V70" stroke="#3451A1" stroke-width="0.5"/>
<path d="M217 6V88.5" stroke="#3451A1" stroke-width="0.5"/>
<path d="M213 1V91" stroke="#3451A1" stroke-width="0.5"/>
<path d="M250 26V64.5" stroke="#3451A1" stroke-width="0.5"/>
<path d="M246 29V63.5" stroke="#3451A1" stroke-width="0.5"/>
<path d="M242 27V70" stroke="#3451A1" stroke-width="0.5"/>
<path d="M238 6V88.5" stroke="#3451A1" stroke-width="0.5"/>
<path d="M234 1V91" stroke="#3451A1" stroke-width="0.5"/>
<path d="M150 26V64.5" stroke="#3451A1" stroke-width="0.5"/>
<path d="M154 29V63.5" stroke="#3451A1" stroke-width="0.5"/>
<path d="M158 27V70" stroke="#3451A1" stroke-width="0.5"/>
<path d="M162 6V88.5" stroke="#3451A1" stroke-width="0.5"/>
<path d="M166 1V91" stroke="#3451A1" stroke-width="0.5"/>
<path d="M192 26V64.5" stroke="#3451A1" stroke-width="0.5"/>
<path d="M196 29V63.5" stroke="#3451A1" stroke-width="0.5"/>
<path d="M200 27V70" stroke="#3451A1" stroke-width="0.5"/>
<path d="M204 6V88.5" stroke="#3451A1" stroke-width="0.5"/>
<path d="M208 1V91" stroke="#3451A1" stroke-width="0.5"/>
<path d="M255 25V63.5" stroke="#3451A1" stroke-width="0.5"/>
<path d="M259 28V62.5" stroke="#3451A1" stroke-width="0.5"/>
<path d="M263 26V69" stroke="#3451A1" stroke-width="0.5"/>
<path d="M267 5V87.5" stroke="#3451A1" stroke-width="0.5"/>
<path d="M271 0V90" stroke="#3451A1" stroke-width="0.5"/>
<path d="M297 25V63.5" stroke="#3451A1" stroke-width="0.5"/>
<path d="M301 28V62.5" stroke="#3451A1" stroke-width="0.5"/>
<path d="M305 26V69" stroke="#3451A1" stroke-width="0.5"/>
<path d="M309 5V87.5" stroke="#3451A1" stroke-width="0.5"/>
<path d="M313 0V90" stroke="#3451A1" stroke-width="0.5"/>
<path d="M355 25V63.5" stroke="#3451A1" stroke-width="0.5"/>
<path d="M351 28V62.5" stroke="#3451A1" stroke-width="0.5"/>
<path d="M347 26V69" stroke="#3451A1" stroke-width="0.5"/>
<path d="M343 5V87.5" stroke="#3451A1" stroke-width="0.5"/>
<path d="M339 0V90" stroke="#3451A1" stroke-width="0.5"/>
<path d="M376 25V63.5" stroke="#3451A1" stroke-width="0.5"/>
<path d="M372 28V62.5" stroke="#3451A1" stroke-width="0.5"/>
<path d="M368 26V69" stroke="#3451A1" stroke-width="0.5"/>
<path d="M364 5V87.5" stroke="#3451A1" stroke-width="0.5"/>
<path d="M360 0V90" stroke="#3451A1" stroke-width="0.5"/>
<path d="M276 25V63.5" stroke="#3451A1" stroke-width="0.5"/>
<path d="M280 28V62.5" stroke="#3451A1" stroke-width="0.5"/>
<path d="M284 26V69" stroke="#3451A1" stroke-width="0.5"/>
<path d="M288 5V87.5" stroke="#3451A1" stroke-width="0.5"/>
<path d="M292 0V90" stroke="#3451A1" stroke-width="0.5"/>
<path d="M318 25V63.5" stroke="#3451A1" stroke-width="0.5"/>
<path d="M322 28V62.5" stroke="#3451A1" stroke-width="0.5"/>
<path d="M326 26V69" stroke="#3451A1" stroke-width="0.5"/>
<path d="M330 5V87.5" stroke="#3451A1" stroke-width="0.5"/>
<path d="M334 0V90" stroke="#3451A1" stroke-width="0.5"/>
</svg>
