<svg width="648" height="512" viewBox="0 0 648 512" fill="none" xmlns="http://www.w3.org/2000/svg">
<path d="M581.278 510H56.9847C51.356 510 46.8765 505.557 46.8765 500.17C46.8765 494.783 51.356 490.341 56.9847 490.341H581.278C586.907 490.341 591.386 494.783 591.386 500.17C591.386 505.557 586.907 510 581.278 510Z" fill="#B0AFB0" stroke="white" stroke-width="4"/>
<path d="M619.804 356.146H513.201C502.363 356.146 493.557 347.543 493.557 336.954C493.557 326.365 502.363 317.762 513.201 317.762H572.726C585.596 317.762 596.011 307.587 596.011 295.013C596.011 282.439 585.596 272.263 572.726 272.263H519.806C505.327 272.263 493.557 260.765 493.557 246.619C493.557 232.473 505.327 220.974 519.806 220.974H578.653C591.523 220.974 602.023 210.716 602.023 198.142C602.023 185.568 591.523 175.31 578.653 175.31H493.642H473.32C460.45 175.31 449.951 165.052 449.951 152.478C449.951 139.904 460.45 129.646 473.32 129.646H496.351C509.221 129.646 519.721 119.388 519.721 106.814C519.721 94.2396 509.221 83.9817 496.351 83.9817H483.227H481.025H341.908H337.167H191.868H158.592C145.722 83.9817 135.222 94.2396 135.222 106.814C135.222 119.388 145.722 129.646 158.592 129.646H168.499C181.369 129.646 191.868 139.904 191.868 152.478C191.868 165.052 181.369 175.31 168.499 175.31H79.3383C69.4316 175.31 61.3877 183.169 61.3877 192.848C61.3877 202.526 69.4316 210.385 79.3383 210.385H173.24C183.57 210.385 191.953 218.575 191.953 228.667C191.953 238.76 183.57 246.95 173.24 246.95H23.3697C10.4994 246.95 0 257.207 0 269.782C0 282.356 10.4994 292.614 23.3697 292.614H168.499C181.369 292.614 191.868 302.872 191.868 315.446C191.868 328.02 181.369 338.278 168.499 338.278H80.8624C60.2023 338.278 43.4371 354.657 43.4371 374.842C43.4371 395.027 60.2023 411.407 80.8624 411.407H191.868H241.148H268.836H493.642H619.804C635.384 411.407 648 399.081 648 383.859C648 368.472 635.384 356.146 619.804 356.146Z" fill="white"/>
<path d="M422.015 500.19H437.256V276.172H422.015V500.19Z" fill="#B0AFB0"/>
<path d="M364.008 321.319C361.552 315.942 364.008 309.572 369.596 307.091C371.036 306.512 372.56 306.181 374.084 306.181C378.402 306.181 382.382 308.662 384.16 312.55L438.351 431.84L418.198 440.608L364.008 321.319Z" fill="#FC9F6F"/>
<path d="M273.412 500.19H288.653V276.172H273.412V500.19Z" fill="#B0AFB0"/>
<path d="M343.94 290.794C291.528 290.794 249.107 251.748 249.107 203.685C249.107 191.276 251.986 179.446 257.066 168.692C223.705 182.176 200.42 212.867 200.42 248.439C200.42 296.584 242.841 335.548 295.254 335.548C334.118 335.548 367.479 314.122 382.128 283.431C370.358 288.147 357.488 290.794 343.94 290.794Z" fill="#3451A1"/>
<path d="M291.443 314.37C320.109 314.37 343.348 293.518 343.348 267.796C343.348 242.074 320.109 221.222 291.443 221.222C262.777 221.222 239.539 242.074 239.539 267.796C239.539 293.518 262.777 314.37 291.443 314.37Z" fill="#3B323A"/>
<path d="M197.965 276.151H81.8784C77.4755 276.151 73.8345 272.594 73.8345 268.293V260.847C73.8345 256.546 77.4755 252.989 81.8784 252.989H197.965C202.368 252.989 206.009 256.546 206.009 260.847V268.293C206.009 272.594 202.368 276.151 197.965 276.151Z" fill="#AFAFAF"/>
<path d="M336.405 232.307C320.147 232.307 306.938 219.402 306.938 203.519V174.731C306.938 163.728 297.878 154.877 286.617 154.877V203.519C286.617 230.404 308.886 252.161 336.405 252.161H377.64V232.307H336.405Z" fill="#EF9067"/>
<path d="M343.094 80.3417C340.045 117.981 306.176 159.675 274.509 154.38C244.196 149.334 223.367 102.595 233.612 69.8356C239.962 49.6508 257.405 36.9939 271.461 26.8187C286.024 16.2299 295.846 9.11561 307.023 10.8528C329.207 14.1618 345.549 50.3953 343.094 80.3417Z" fill="#603936"/>
<path d="M300.334 187.47C299.741 186.809 295 181.432 294.153 180.687C291.951 171.835 287.464 162.074 288.395 150.658C282.045 146.108 271.545 140.317 259.606 141.145C256.05 141.393 252.324 142.22 250.462 142.634C240.132 144.95 233.612 148.672 231.495 149.913C228.616 151.651 227.177 152.478 225.483 154.132C220.911 158.765 219.81 164.39 219.217 167.699C214.137 196.487 218.117 224.118 218.625 226.517C219.556 230.901 220.826 234.789 220.826 234.789C222.943 241.324 225.483 245.378 226.161 247.198C229.548 256.132 237.253 274.911 245.381 289.222C251.308 290.132 264.771 295.923 273.662 292.945C287.21 288.395 315.152 278.22 325.143 276.151C312.696 262.502 301.265 247.28 298.302 228.75C297.54 223.952 296.862 219.237 296.354 214.604C297.54 214.025 304.737 210.468 306.176 203.354C307.7 195.66 301.519 188.794 300.334 187.47Z" fill="#F05364"/>
<path d="M269.757 170.009C277.144 167.996 281.187 159.551 278.788 151.146C276.389 142.741 268.456 137.558 261.069 139.571C253.682 141.583 249.638 150.029 252.037 158.434C254.437 166.839 262.37 172.021 269.757 170.009Z" fill="#EF9067"/>
<path d="M263.247 136.016C267.904 146.77 275.61 150.492 280.521 153.305C290.089 158.765 308.039 158.269 308.039 158.269C308.632 154.463 309.225 151.154 312.273 144.867C316.676 135.519 320.74 133.286 326.413 124.848C334.88 112.108 339.114 96.7213 336.405 95.2323C334.457 94.0741 329.123 100.03 325.651 103.505C315.744 113.432 293.56 128.157 263.247 136.016Z" fill="#603936"/>
<path d="M262.909 159.675H259.352C251.562 159.675 245.297 153.553 245.297 145.943V93.7432H273.408V149.334C273.408 155.042 268.666 159.675 262.909 159.675Z" fill="#EF9067"/>
<path d="M104.641 500.19H119.882L119.882 276.172H104.641L104.641 500.19Z" fill="#B0AFB0"/>
<path d="M198.383 500.19H213.624L213.624 276.172H198.383L198.383 500.19Z" fill="#B0AFB0"/>
<path d="M513.752 500.19H528.993V276.172H513.752V500.19Z" fill="#B0AFB0"/>
<path opacity="0.71" d="M245.297 99.2857C247.159 115.086 258.336 128.157 273.408 133.12V90.5996H245.297V99.2857Z" fill="#D36B46"/>
<path d="M286.617 131.052C265.957 131.052 249.276 114.755 249.276 94.5705V50.0646C249.276 48.1619 250.8 46.6729 252.748 46.6729H305.838C315.829 46.6729 323.958 54.6144 323.958 64.376V94.5705C323.958 114.755 307.277 131.052 286.617 131.052Z" fill="#FC9F6F"/>
<path d="M323.958 89.3588C323.534 90.3515 322.518 91.0133 321.417 91.0133H304.991C303.467 91.0133 302.197 89.7724 302.197 88.2834V79.2663C302.197 77.7773 303.467 76.5364 304.991 76.5364H321.417C322.518 76.5364 323.534 77.1982 323.958 78.1909V74.7165C323.196 74.3029 322.349 74.0547 321.417 74.0547H304.991C302.027 74.0547 299.657 76.371 299.657 79.2663V88.2834C299.657 91.1787 302.027 93.495 304.991 93.495H321.417C322.349 93.495 323.196 93.2469 323.958 92.8332V89.3588Z" fill="#DD9883"/>
<path d="M290.935 92.1715H274.509C272.223 92.1715 270.445 90.3515 270.445 88.2007V79.1837C270.445 76.9501 272.307 75.2129 274.509 75.2129H290.935C293.222 75.2129 295 77.0329 295 79.1837V88.2007C295 90.4343 293.137 92.1715 290.935 92.1715Z" stroke="#DD9883" stroke-width="3" stroke-miterlimit="10" stroke-linecap="round" stroke-linejoin="round"/>
<path opacity="0.6" d="M272.477 101.519V57.0134C272.477 55.1107 274.001 53.6216 275.948 53.6216L306.6 43.1156C303.298 38.8966 311.68 46.7555 305.838 46.7555H252.748C250.8 46.7555 249.276 48.2445 249.276 50.1472V94.6532C249.276 114.838 265.957 131.135 286.617 131.135C287.04 131.135 287.464 131.135 287.972 131.135C278.573 124.434 272.477 113.68 272.477 101.519Z" fill="#EF9067"/>
<path d="M321.418 90.5169H304.991C302.705 90.5169 300.927 88.697 300.927 86.5462V77.5292C300.927 75.2956 302.79 73.5583 304.991 73.5583H321.418C323.704 73.5583 325.482 75.3783 325.482 77.5292V86.5462C325.482 88.7797 323.619 90.5169 321.418 90.5169Z" stroke="#F6CDF7" stroke-width="3" stroke-miterlimit="10" stroke-linecap="round" stroke-linejoin="round"/>
<path d="M296.354 112.687C291.613 112.687 287.802 108.965 287.802 104.415V100.527H304.737V104.415C304.737 108.965 301.011 112.687 296.354 112.687Z" fill="#FCFAFA"/>
<path d="M281.029 81.0037H288.649" stroke="#161515" stroke-width="3" stroke-miterlimit="10" stroke-linecap="round" stroke-linejoin="round"/>
<path d="M309.817 81.0037H317.438" stroke="#161515" stroke-width="3" stroke-miterlimit="10" stroke-linecap="round" stroke-linejoin="round"/>
<path d="M290.935 90.5169H274.509C272.223 90.5169 270.445 88.697 270.445 86.5462V77.5292C270.445 75.2956 272.307 73.5583 274.509 73.5583H290.935C293.222 73.5583 295 75.3783 295 77.5292V86.5462C295 88.7797 293.137 90.5169 290.935 90.5169Z" stroke="#F6CDF7" stroke-width="3" stroke-miterlimit="10" stroke-linecap="round" stroke-linejoin="round"/>
<path d="M302.281 13.1692C292.036 0.264142 274.593 0.512319 271.376 0.18142C268.497 -0.397654 252.663 0.346872 241.063 3.32497C214.307 10.2739 195.679 33.9331 195.679 61.0669V95.8113C195.679 119.14 213.29 147.432 235.898 154.794C248.43 158.93 262.316 162.074 265.618 161.578C248.853 131.218 251.139 113.266 255.881 102.76C267.227 77.1155 300.503 78.0255 308.717 49.4854C308.886 48.6582 314.051 28.0597 302.281 13.1692Z" fill="#754743"/>
<path d="M406.768 251.913C407.614 249.762 408.038 247.446 408.038 245.047C408.038 234.044 398.978 225.193 387.716 225.193C376.455 225.193 367.395 234.044 367.395 245.047C367.395 247.446 367.818 249.762 368.665 251.913H406.768Z" fill="#EF9067"/>
<path d="M341.57 252.988C339.876 245.378 330.477 239.587 319.047 239.587C307.7 239.587 298.217 245.378 296.524 252.988H341.57Z" fill="#F4EFF0"/>
<path d="M230.056 195.081C236.883 195.081 242.418 186.6 242.418 176.137C242.418 165.675 236.883 157.193 230.056 157.193C223.228 157.193 217.693 165.675 217.693 176.137C217.693 186.6 223.228 195.081 230.056 195.081Z" fill="#EF9067"/>
<path d="M267.481 232.969C251.224 232.969 238.015 220.064 238.015 204.181V169.023C238.015 163.563 233.443 159.096 227.854 159.096C222.266 159.096 217.693 163.563 217.693 169.023V204.181C217.693 231.067 239.962 252.823 267.481 252.823H308.717V232.969H288.056H267.481Z" fill="#FC9F6F"/>
<path d="M438.689 252.988H343.856C342.67 252.988 341.654 251.996 341.654 250.838C341.654 249.679 342.67 248.687 343.856 248.687H438.774C439.959 248.687 440.975 249.679 440.975 250.838C440.975 251.996 439.959 252.988 438.689 252.988Z" fill="white"/>
<path d="M438.689 250.838H343.856C343.009 250.838 342.332 250.424 341.908 249.762C341.739 250.093 341.57 250.424 341.57 250.838C341.57 251.996 342.586 252.988 343.771 252.988H438.689C439.875 252.988 440.891 251.996 440.891 250.838C440.891 250.424 440.806 250.093 440.552 249.762C440.213 250.341 439.536 250.838 438.689 250.838Z" fill="#F4EFF0"/>
<path d="M362.23 252.988H343.856C342.67 252.988 341.654 251.996 341.654 250.838C341.654 249.679 342.67 248.687 343.856 248.687H362.23C363.415 248.687 364.431 249.679 364.431 250.838C364.431 251.996 363.5 252.988 362.23 252.988Z" fill="#F4EFF0"/>
<path d="M432 248.687H425.057V247.115C425.057 246.288 425.734 245.543 426.666 245.543H430.391C431.238 245.543 432 246.205 432 247.115V248.687Z" fill="#F4EFF0"/>
<path d="M423.533 248.687H416.59V247.115C416.59 246.288 417.267 245.543 418.198 245.543H421.924C422.771 245.543 423.533 246.205 423.533 247.115V248.687Z" fill="#F4EFF0"/>
<path d="M415.065 248.687H408.122V247.115C408.122 246.288 408.8 245.543 409.731 245.543H413.457C414.303 245.543 415.065 246.205 415.065 247.115V248.687Z" fill="#F4EFF0"/>
<path d="M406.598 248.687H399.655V247.115C399.655 246.288 400.332 245.543 401.264 245.543H404.989C405.836 245.543 406.598 246.205 406.598 247.115V248.687Z" fill="#F4EFF0"/>
<path d="M398.131 248.687H391.188V247.115C391.188 246.288 391.865 245.543 392.797 245.543H396.522C397.369 245.543 398.131 246.205 398.131 247.115V248.687Z" fill="#F4EFF0"/>
<path d="M389.664 248.687H382.721V247.115C382.721 246.288 383.398 245.543 384.329 245.543H388.055C388.902 245.543 389.664 246.205 389.664 247.115V248.687Z" fill="#F4EFF0"/>
<path d="M381.196 248.687H374.253V247.115C374.253 246.288 374.931 245.543 375.862 245.543H379.588C380.434 245.543 381.196 246.205 381.196 247.115V248.687Z" fill="#F4EFF0"/>
<path d="M372.729 248.687H365.786V247.115C365.786 246.288 366.463 245.543 367.395 245.543H371.12C371.967 245.543 372.729 246.205 372.729 247.115V248.687Z" fill="#F4EFF0"/>
<path d="M364.262 248.687H357.319V247.115C357.319 246.288 357.996 245.543 358.928 245.543H362.653C363.5 245.543 364.262 246.205 364.262 247.115V248.687Z" fill="#F4EFF0"/>
<path d="M355.795 248.687H348.851V247.115C348.851 246.288 349.529 245.543 350.46 245.543H354.186C355.033 245.543 355.795 246.205 355.795 247.115V248.687Z" fill="#F4EFF0"/>
<path d="M343.856 252.988H362.23C363.415 252.988 364.431 251.996 364.431 250.838H341.57C341.57 251.996 342.586 252.988 343.856 252.988Z" fill="#E2E2E2"/>
<path d="M352.069 320.161H285.093L284.585 285.417H367.564C373.152 285.417 377.64 289.801 377.64 295.261C377.555 309.076 366.125 320.161 352.069 320.161Z" fill="#352934"/>
<path d="M298.217 446.151L339.283 310.482C340.638 305.932 344.956 302.789 349.868 302.789C350.884 302.789 351.984 302.954 353 303.202C358.843 304.857 362.145 310.896 360.452 316.604L319.385 452.273L298.217 446.151Z" fill="#EF9067"/>
<path d="M332.34 435.066L298.217 425.222L341.231 283.183C344.025 274.001 353.932 268.706 363.33 271.436C372.729 274.166 378.148 283.845 375.354 293.027L332.34 435.066Z" fill="#352934"/>
<path d="M501.855 212.784H359.605C356.811 212.784 354.524 210.551 354.524 207.821L372.136 108.551C372.136 105.821 374.423 103.587 377.217 103.587H519.467C522.261 103.587 524.547 105.821 524.547 108.551L506.935 207.821C506.935 210.551 504.734 212.784 501.855 212.784Z" fill="#CECECE"/>
<path d="M382.573 108.9L382.604 108.727V108.551C382.604 106.969 383.95 105.587 385.684 105.587H527.934C529.612 105.587 530.927 106.881 531.01 108.398L513.433 207.471L513.403 207.645V207.821C513.403 209.424 512.119 210.784 510.322 210.784H368.072C366.394 210.784 365.079 209.49 364.996 207.973L382.573 108.9Z" fill="#3451A1" stroke="white" stroke-width="4"/>
<path d="M466.885 247.611L455.2 189.787H434.371C431.831 189.787 429.883 192.103 430.391 194.502L440.721 245.543C441.145 247.446 439.621 249.183 437.673 249.183H424.972C422.686 249.183 420.908 251.003 420.908 253.154H442.245H462.059C465.192 253.237 467.478 250.507 466.885 247.611Z" fill="#CECECE"/>
<path d="M467.986 253.237H446.394L433.863 191.193C433.693 190.448 434.286 189.869 435.048 189.869H459.349L471.373 249.349C471.712 251.334 470.103 253.237 467.986 253.237Z" fill="#3451A1"/>
<path d="M442.33 253.237H446.394L445.294 247.611H441.145L442.33 253.237Z" fill="#3451A1"/>
<path d="M442.33 253.237C444.447 253.237 446.056 251.334 445.632 249.266L445.294 247.611H440.721L442.33 253.237Z" fill="#CECECE"/>
<path d="M460.958 160.171C456.386 160.171 452.66 156.531 452.66 152.064C452.66 150.575 453.083 149.251 453.761 148.093C452.575 147.762 451.305 147.514 449.951 147.514C442.753 147.514 436.996 153.222 436.996 160.171C436.996 167.12 442.838 172.828 449.951 172.828C457.148 172.828 462.905 167.12 462.905 160.171C462.905 160.088 462.905 160.006 462.905 159.923C462.228 160.088 461.635 160.171 460.958 160.171Z" fill="#CECECE"/>
<path d="M362.484 301.217L292.713 319.168C273.747 324.049 254.526 310.896 245.297 289.139L353.424 267.548C362.907 265.149 372.644 270.692 375.1 279.957C377.64 289.305 371.967 298.818 362.484 301.217Z" fill="#3B323A"/>
<path d="M447.499 448.207L414.985 462.353L358 337.107C354.02 328.339 358.085 318.081 367.06 314.193C376.035 310.305 386.535 314.275 390.514 323.044L447.499 448.207Z" fill="#3B323A"/>
<path d="M553.505 274.151H190.937C187.524 274.151 184.893 271.46 184.893 268.293V260.847C184.893 257.694 187.594 254.989 190.937 254.989H553.505C556.848 254.989 559.549 257.694 559.549 260.847V268.293C559.549 271.446 556.848 274.151 553.505 274.151Z" fill="#3451A1" stroke="white" stroke-width="4"/>
<path d="M485.682 444.91L413.626 457.732C410.832 458.229 408.207 456.492 407.614 453.927L407.106 451.694C405.667 445.241 409.9 438.706 416.844 436.969L469.341 423.981C479.501 421.499 489.747 426.049 491.61 434.404L492.287 437.382C493.049 440.774 490.085 444.166 485.682 444.91Z" fill="#535452"/>
<path d="M488.477 438.54L407.953 452.852C407.784 452.852 407.614 452.934 407.445 452.934L407.699 453.927C408.292 456.574 410.916 458.229 413.711 457.733L485.767 444.91C490.17 444.166 493.218 440.774 492.456 437.382L492.372 437.134C491.186 437.796 489.916 438.292 488.477 438.54Z" fill="#FFFDFD"/>
<path d="M336.913 489.168L276.71 448.467C274.424 446.896 273.747 443.835 275.271 441.601L276.541 439.616C280.182 434.073 287.972 432.336 294.068 435.976L340.554 463.11C349.613 468.404 353.508 478.745 348.767 485.859L347.073 488.423C345.211 491.319 340.554 491.65 336.913 489.168Z" fill="#424441"/>
<path d="M343.517 486.603L276.202 441.105C276.033 441.022 275.948 440.857 275.779 440.774L275.271 441.601C273.831 443.835 274.424 446.896 276.71 448.467L336.913 489.168C340.553 491.65 345.21 491.319 347.073 488.423L347.243 488.175C345.972 487.927 344.702 487.348 343.517 486.603Z" fill="#CECECE"/>
<path d="M170.192 252.989H156.475C149.532 252.989 143.859 247.446 143.859 240.663V204.181H182.808V240.663C182.893 247.446 177.22 252.989 170.192 252.989Z" fill="#FF6161"/>
<path d="M148.262 209.144C139.202 209.144 131.92 216.341 131.92 225.11C131.92 233.879 139.287 241.076 148.262 241.076C157.237 241.076 164.604 233.879 164.604 225.11C164.604 216.341 157.237 209.144 148.262 209.144ZM148.262 237.602C141.234 237.602 135.476 231.976 135.476 225.11C135.476 218.244 141.234 212.619 148.262 212.619C155.29 212.619 161.047 218.244 161.047 225.11C160.963 232.059 155.29 237.602 148.262 237.602Z" fill="#F4A36C"/>
<path d="M170.192 252.989H156.475C149.532 252.989 143.859 247.446 143.859 240.663V204.181H182.808V240.663C182.893 247.446 177.22 252.989 170.192 252.989Z" fill="#F7BC8B"/>
<path d="M162.318 241.407C158.423 241.407 155.29 238.346 155.29 234.541V204.181H143.859V240.663C143.859 247.446 149.532 252.989 156.475 252.989H170.192C176.881 252.989 182.385 247.86 182.808 241.407H162.318Z" fill="#EFA573"/>
<path d="M323.788 252.988C324.635 250.838 325.058 248.521 325.058 246.122C325.058 235.12 315.998 226.268 304.737 226.268C293.476 226.268 284.416 235.12 284.416 246.122C284.416 248.521 284.839 250.838 285.686 252.988H323.788Z" fill="#FC9F6F"/>
<path opacity="0.77" d="M159.1 197.563C162.14 197.563 164.604 195.155 164.604 192.186C164.604 189.216 162.14 186.809 159.1 186.809C156.06 186.809 153.596 189.216 153.596 192.186C153.596 195.155 156.06 197.563 159.1 197.563Z" fill="#F2F2F2"/>
<path opacity="0.77" d="M169.261 181.431C173.797 181.431 177.474 177.839 177.474 173.407C177.474 168.975 173.797 165.383 169.261 165.383C164.725 165.383 161.047 168.975 161.047 173.407C161.047 177.839 164.725 181.431 169.261 181.431Z" fill="#F2F2F2"/>
<path d="M88.9063 129.646C101.813 129.646 112.276 119.424 112.276 106.814C112.276 94.204 101.813 83.9817 88.9063 83.9817C75.9996 83.9817 65.5367 94.204 65.5367 106.814C65.5367 119.424 75.9996 129.646 88.9063 129.646Z" fill="#65706C"/>
</svg>
