<svg width="50" height="50" viewBox="0 0 50 50" fill="none" xmlns="http://www.w3.org/2000/svg">
<path d="M23.4374 16.8334V22.7917L21.3332 22.0625C20.2707 21.6875 19.6249 21.3334 19.6249 19.5209C19.6249 18.0417 20.729 16.8334 22.0832 16.8334H23.4374Z" fill="#3451A1"/>
<path d="M30.375 30.4792C30.375 31.9584 29.2708 33.1667 27.9167 33.1667H26.5625V27.2084L28.6667 27.9375C29.7292 28.3125 30.375 28.6667 30.375 30.4792Z" fill="#3451A1"/>
<path d="M33.7291 4.16663H16.2708C8.68746 4.16663 4.16663 8.68746 4.16663 16.2708V33.7291C4.16663 41.3125 8.68746 45.8333 16.2708 45.8333H33.7291C41.3125 45.8333 45.8333 41.3125 45.8333 33.7291V16.2708C45.8333 8.68746 41.3125 4.16663 33.7291 4.16663ZM29.7083 25C31.3333 25.5625 33.5 26.75 33.5 30.4791C33.5 33.6875 31 36.2916 27.9166 36.2916H26.5625V37.5C26.5625 38.3541 25.8541 39.0625 25 39.0625C24.1458 39.0625 23.4375 38.3541 23.4375 37.5V36.2916H22.6875C19.2708 36.2916 16.5 33.3958 16.5 29.8541C16.5 29 17.1875 28.2916 18.0625 28.2916C18.9166 28.2916 19.625 29 19.625 29.8541C19.625 31.6875 21 33.1666 22.6875 33.1666H23.4375V26.1041L20.2916 25C18.6666 24.4375 16.5 23.25 16.5 19.5208C16.5 16.3125 19 13.7083 22.0833 13.7083H23.4375V12.5C23.4375 11.6458 24.1458 10.9375 25 10.9375C25.8541 10.9375 26.5625 11.6458 26.5625 12.5V13.7083H27.3125C30.7291 13.7083 33.5 16.6041 33.5 20.1458C33.5 21 32.8125 21.7083 31.9375 21.7083C31.0833 21.7083 30.375 21 30.375 20.1458C30.375 18.3125 29 16.8333 27.3125 16.8333H26.5625V23.8958L29.7083 25Z" fill="#3451A1"/>
</svg>
