<svg width="247" height="80" viewBox="0 0 247 80" fill="none" xmlns="http://www.w3.org/2000/svg">
<path d="M16.6667 67.5001C16.6667 68.8834 17.7867 70.0001 19.1667 70.0001H48.9367C48.0351 69.6858 47.2246 69.1546 46.5767 68.4534L43.3333 64.9867V65.0001H30L29.9967 56.6734H33.3333V50.0001C33.3333 49.116 33.6845 48.2682 34.3097 47.6431C34.9348 47.0179 35.7826 46.6667 36.6667 46.6667H41.7767L46.5767 41.5467C49.45 38.4834 54.1233 39.4667 55.9233 42.6501C57.1433 41.8367 58.6233 41.5168 60.05 41.7334C60.1874 40.6992 60.5996 39.7208 61.2437 38.9001C61.8878 38.0795 62.7402 37.4465 63.7121 37.0673C64.684 36.6881 65.7398 36.5764 66.7695 36.744C67.7992 36.9116 68.7652 37.3523 69.5667 38.0201C69.7067 38.1367 69.85 38.2634 69.9967 38.3967V14.1667L69.98 13.6534C69.8499 11.7575 69.005 9.98156 67.6159 8.68465C66.2267 7.38773 64.3971 6.66651 62.4967 6.66675H10.8333L10.32 6.68342C8.42405 6.81349 6.64815 7.65846 5.35124 9.04757C4.05433 10.4367 3.33311 12.2663 3.33334 14.1667V49.1734L3.35001 49.6867C3.48008 51.5827 4.32506 53.3586 5.71416 54.6555C7.10327 55.9524 8.93292 56.6736 10.8333 56.6734H24.9967V65.0001H19.1667L18.8267 65.0234C18.2282 65.1056 17.6796 65.4017 17.2826 65.857C16.8855 66.3123 16.6667 66.896 16.6667 67.5001Z" fill="white"/>
<path d="M70.4767 44.3401C69.3833 42.5168 68.26 41.2734 67.4333 40.5801C67.181 40.37 66.8897 40.2116 66.5761 40.1141C66.2626 40.0165 65.9329 39.9817 65.6059 40.0116C65.2789 40.0415 64.9609 40.1354 64.6702 40.2882C64.3795 40.4409 64.1218 40.6494 63.9117 40.9018C63.4873 41.4114 63.2828 42.0688 63.3431 42.7292C63.4035 43.3897 63.7237 43.9991 64.2333 44.4234C64.6567 44.7734 65.41 45.6101 66.19 46.9134C67.5267 49.1434 68.3333 51.8301 68.3333 55.0001C68.3333 58.1734 67.5267 60.8601 66.19 63.0901C65.41 64.3901 64.6567 65.2301 64.2333 65.5801C63.7237 66.0045 63.4035 66.6139 63.3431 67.2743C63.2828 67.9348 63.4873 68.5921 63.9117 69.1018C64.336 69.6114 64.9454 69.9317 65.6059 69.992C66.2663 70.0523 66.9237 69.8478 67.4333 69.4234C68.26 68.7334 69.3833 67.4868 70.4767 65.6634C72.2633 62.6834 73.3333 59.1201 73.3333 55.0001C73.3333 50.8834 72.2667 47.3201 70.4767 44.3401Z" fill="white"/>
<path d="M62.9134 47.99C62.3063 47.0423 61.5472 46.201 60.6667 45.5C60.1363 45.1022 59.4695 44.9314 58.8131 45.0251C58.1568 45.1189 57.5645 45.4696 57.1667 46C56.7689 46.5304 56.598 47.1972 56.6918 47.8536C56.7856 48.5099 57.1362 49.1022 57.6667 49.5C57.8733 49.6567 58.3 50.0833 58.7533 50.7633C59.5333 51.9333 60 53.3333 60 55C60 56.6667 59.5333 58.07 58.7533 59.24C58.4562 59.713 58.0899 60.1388 57.6667 60.5033L57.3867 60.7467C56.9417 61.1954 56.6833 61.7961 56.6632 62.4277C56.6432 63.0593 56.8632 63.6751 57.2788 64.1511C57.6944 64.6272 58.2749 64.9281 58.9035 64.9935C59.532 65.0588 60.162 64.8837 60.6667 64.5033C61.2967 64.03 62.1167 63.21 62.9134 62.0133C64.2959 59.9374 65.0229 57.4941 65 55C65 52.2933 64.2167 49.9433 62.9134 47.99Z" fill="white"/>
<path d="M53.3334 45.8333C53.3324 45.3253 53.1767 44.8295 52.887 44.4122C52.5973 43.9948 52.1872 43.6757 51.7116 43.4972C51.2359 43.3187 50.7171 43.2894 50.2244 43.4132C49.7316 43.537 49.2882 43.8079 48.9534 44.19L43.8667 50H39.1667C38.5036 50 37.8678 50.2634 37.3989 50.7322C36.9301 51.2011 36.6667 51.8369 36.6667 52.5V57.5C36.6667 58.8833 37.7867 60 39.1667 60H43.8667L48.9534 65.8133C49.2884 66.1956 49.7321 66.4666 50.2252 66.5903C50.7182 66.714 51.2373 66.6844 51.7131 66.5055C52.1889 66.3266 52.5989 66.0069 52.8884 65.5891C53.1779 65.1712 53.3331 64.675 53.3334 64.1667V45.8333Z" fill="white"/>
<path d="M109.078 37.95H101.23V60H96.388V37.95H88.54V33.972H109.078V37.95ZM136.427 46.986C136.427 48.894 136.109 50.664 135.473 52.296C134.849 53.916 133.961 55.32 132.809 56.508C131.657 57.696 130.271 58.626 128.651 59.298C127.031 59.958 125.231 60.288 123.251 60.288C121.283 60.288 119.489 59.958 117.869 59.298C116.249 58.626 114.857 57.696 113.693 56.508C112.541 55.32 111.647 53.916 111.011 52.296C110.375 50.664 110.057 48.894 110.057 46.986C110.057 45.078 110.375 43.314 111.011 41.694C111.647 40.062 112.541 38.652 113.693 37.464C114.857 36.276 116.249 35.352 117.869 34.692C119.489 34.02 121.283 33.684 123.251 33.684C124.571 33.684 125.813 33.84 126.977 34.152C128.141 34.452 129.209 34.884 130.181 35.448C131.153 36 132.023 36.678 132.791 37.482C133.571 38.274 134.231 39.162 134.771 40.146C135.311 41.13 135.719 42.198 135.995 43.35C136.283 44.502 136.427 45.714 136.427 46.986ZM131.477 46.986C131.477 45.558 131.285 44.28 130.901 43.152C130.517 42.012 129.971 41.046 129.263 40.254C128.555 39.462 127.691 38.856 126.671 38.436C125.663 38.016 124.523 37.806 123.251 37.806C121.979 37.806 120.833 38.016 119.813 38.436C118.805 38.856 117.941 39.462 117.221 40.254C116.513 41.046 115.967 42.012 115.583 43.152C115.199 44.28 115.007 45.558 115.007 46.986C115.007 48.414 115.199 49.698 115.583 50.838C115.967 51.966 116.513 52.926 117.221 53.718C117.941 54.498 118.805 55.098 119.813 55.518C120.833 55.938 121.979 56.148 123.251 56.148C124.523 56.148 125.663 55.938 126.671 55.518C127.691 55.098 128.555 54.498 129.263 53.718C129.971 52.926 130.517 51.966 130.901 50.838C131.285 49.698 131.477 48.414 131.477 46.986ZM163.791 46.986C163.791 48.894 163.473 50.646 162.837 52.242C162.201 53.838 161.307 55.212 160.155 56.364C159.003 57.516 157.617 58.41 155.997 59.046C154.377 59.682 152.577 60 150.597 60H140.679V33.972H150.597C152.577 33.972 154.377 34.296 155.997 34.944C157.617 35.58 159.003 36.474 160.155 37.626C161.307 38.766 162.201 40.134 162.837 41.73C163.473 43.326 163.791 45.078 163.791 46.986ZM158.823 46.986C158.823 45.558 158.631 44.28 158.247 43.152C157.875 42.012 157.329 41.052 156.609 40.272C155.901 39.48 155.037 38.874 154.017 38.454C153.009 38.034 151.869 37.824 150.597 37.824H145.539V56.148H150.597C151.869 56.148 153.009 55.938 154.017 55.518C155.037 55.098 155.901 54.498 156.609 53.718C157.329 52.926 157.875 51.966 158.247 50.838C158.631 49.698 158.823 48.414 158.823 46.986ZM192.888 46.986C192.888 48.894 192.57 50.664 191.934 52.296C191.31 53.916 190.422 55.32 189.27 56.508C188.118 57.696 186.732 58.626 185.112 59.298C183.492 59.958 181.692 60.288 179.712 60.288C177.744 60.288 175.95 59.958 174.33 59.298C172.71 58.626 171.318 57.696 170.154 56.508C169.002 55.32 168.108 53.916 167.472 52.296C166.836 50.664 166.518 48.894 166.518 46.986C166.518 45.078 166.836 43.314 167.472 41.694C168.108 40.062 169.002 38.652 170.154 37.464C171.318 36.276 172.71 35.352 174.33 34.692C175.95 34.02 177.744 33.684 179.712 33.684C181.032 33.684 182.274 33.84 183.438 34.152C184.602 34.452 185.67 34.884 186.642 35.448C187.614 36 188.484 36.678 189.252 37.482C190.032 38.274 190.692 39.162 191.232 40.146C191.772 41.13 192.18 42.198 192.456 43.35C192.744 44.502 192.888 45.714 192.888 46.986ZM187.938 46.986C187.938 45.558 187.746 44.28 187.362 43.152C186.978 42.012 186.432 41.046 185.724 40.254C185.016 39.462 184.152 38.856 183.132 38.436C182.124 38.016 180.984 37.806 179.712 37.806C178.44 37.806 177.294 38.016 176.274 38.436C175.266 38.856 174.402 39.462 173.682 40.254C172.974 41.046 172.428 42.012 172.044 43.152C171.66 44.28 171.468 45.558 171.468 46.986C171.468 48.414 171.66 49.698 172.044 50.838C172.428 51.966 172.974 52.926 173.682 53.718C174.402 54.498 175.266 55.098 176.274 55.518C177.294 55.938 178.44 56.148 179.712 56.148C180.984 56.148 182.124 55.938 183.132 55.518C184.152 55.098 185.016 54.498 185.724 53.718C186.432 52.926 186.978 51.966 187.362 50.838C187.746 49.698 187.938 48.414 187.938 46.986Z" fill="#F5F8FA"/>
<path d="M207.706 45.132C207.586 45.324 207.46 45.462 207.328 45.546C207.196 45.618 207.028 45.654 206.824 45.654C206.608 45.654 206.374 45.594 206.122 45.474C205.882 45.354 205.6 45.222 205.276 45.078C204.952 44.922 204.58 44.784 204.16 44.664C203.752 44.544 203.266 44.484 202.702 44.484C201.826 44.484 201.136 44.67 200.632 45.042C200.14 45.414 199.894 45.9 199.894 46.5C199.894 46.896 200.02 47.232 200.272 47.508C200.536 47.772 200.878 48.006 201.298 48.21C201.73 48.414 202.216 48.6 202.756 48.768C203.296 48.924 203.842 49.098 204.394 49.29C204.958 49.482 205.51 49.704 206.05 49.956C206.59 50.196 207.07 50.508 207.49 50.892C207.922 51.264 208.264 51.714 208.516 52.242C208.78 52.77 208.912 53.406 208.912 54.15C208.912 55.038 208.75 55.86 208.426 56.616C208.114 57.36 207.646 58.008 207.022 58.56C206.398 59.1 205.624 59.526 204.7 59.838C203.788 60.138 202.732 60.288 201.532 60.288C200.896 60.288 200.272 60.228 199.66 60.108C199.06 60 198.478 59.844 197.914 59.64C197.362 59.436 196.846 59.196 196.366 58.92C195.898 58.644 195.484 58.344 195.124 58.02L196.15 56.328C196.282 56.124 196.438 55.968 196.618 55.86C196.798 55.752 197.026 55.698 197.302 55.698C197.578 55.698 197.836 55.776 198.076 55.932C198.328 56.088 198.616 56.256 198.94 56.436C199.264 56.616 199.642 56.784 200.074 56.94C200.518 57.096 201.076 57.174 201.748 57.174C202.276 57.174 202.726 57.114 203.098 56.994C203.482 56.862 203.794 56.694 204.034 56.49C204.286 56.286 204.466 56.052 204.574 55.788C204.694 55.512 204.754 55.23 204.754 54.942C204.754 54.51 204.622 54.156 204.358 53.88C204.106 53.604 203.764 53.364 203.332 53.16C202.912 52.956 202.426 52.776 201.874 52.62C201.334 52.452 200.776 52.272 200.2 52.08C199.636 51.888 199.078 51.666 198.526 51.414C197.986 51.15 197.5 50.82 197.068 50.424C196.648 50.028 196.306 49.542 196.042 48.966C195.79 48.39 195.664 47.694 195.664 46.878C195.664 46.122 195.814 45.402 196.114 44.718C196.414 44.034 196.852 43.44 197.428 42.936C198.016 42.42 198.742 42.012 199.606 41.712C200.482 41.4 201.49 41.244 202.63 41.244C203.902 41.244 205.06 41.454 206.104 41.874C207.148 42.294 208.018 42.846 208.714 43.53L207.706 45.132ZM222.015 52.116C220.731 52.176 219.651 52.29 218.775 52.458C217.899 52.614 217.197 52.818 216.669 53.07C216.141 53.322 215.763 53.616 215.535 53.952C215.307 54.288 215.193 54.654 215.193 55.05C215.193 55.83 215.421 56.388 215.877 56.724C216.345 57.06 216.951 57.228 217.695 57.228C218.607 57.228 219.393 57.066 220.053 56.742C220.725 56.406 221.379 55.902 222.015 55.23V52.116ZM211.827 44.106C213.951 42.162 216.507 41.19 219.495 41.19C220.575 41.19 221.541 41.37 222.393 41.73C223.245 42.078 223.965 42.57 224.553 43.206C225.141 43.83 225.585 44.58 225.885 45.456C226.197 46.332 226.353 47.292 226.353 48.336V60H224.337C223.917 60 223.593 59.94 223.365 59.82C223.137 59.688 222.957 59.43 222.825 59.046L222.429 57.714C221.961 58.134 221.505 58.506 221.061 58.83C220.617 59.142 220.155 59.406 219.675 59.622C219.195 59.838 218.679 60 218.127 60.108C217.587 60.228 216.987 60.288 216.327 60.288C215.547 60.288 214.827 60.186 214.167 59.982C213.507 59.766 212.937 59.448 212.457 59.028C211.977 58.608 211.605 58.086 211.341 57.462C211.077 56.838 210.945 56.112 210.945 55.284C210.945 54.816 211.023 54.354 211.179 53.898C211.335 53.43 211.587 52.986 211.935 52.566C212.295 52.146 212.757 51.75 213.321 51.378C213.885 51.006 214.575 50.682 215.391 50.406C216.219 50.13 217.179 49.908 218.271 49.74C219.363 49.56 220.611 49.452 222.015 49.416V48.336C222.015 47.1 221.751 46.188 221.223 45.6C220.695 45 219.933 44.7 218.937 44.7C218.217 44.7 217.617 44.784 217.137 44.952C216.669 45.12 216.255 45.312 215.895 45.528C215.535 45.732 215.205 45.918 214.905 46.086C214.617 46.254 214.293 46.338 213.933 46.338C213.621 46.338 213.357 46.26 213.141 46.104C212.925 45.936 212.751 45.744 212.619 45.528L211.827 44.106ZM246.788 41.532L236.726 65.076C236.594 65.388 236.42 65.622 236.204 65.778C236 65.946 235.682 66.03 235.25 66.03H231.938L235.394 58.614L227.924 41.532H231.83C232.178 41.532 232.448 41.616 232.64 41.784C232.844 41.952 232.994 42.144 233.09 42.36L237.014 51.936C237.146 52.26 237.254 52.584 237.338 52.908C237.434 53.232 237.524 53.562 237.608 53.898C237.716 53.562 237.824 53.232 237.932 52.908C238.04 52.572 238.16 52.242 238.292 51.918L242 42.36C242.096 42.12 242.252 41.922 242.468 41.766C242.696 41.61 242.948 41.532 243.224 41.532H246.788Z" fill="white"/>
</svg>
