<svg width="50" height="50" viewBox="0 0 50 50" fill="none" xmlns="http://www.w3.org/2000/svg">
<path d="M40.6458 12.1875L28.2708 5.04163C26.2499 3.87496 23.7499 3.87496 21.7083 5.04163L9.35408 12.1875C7.33325 13.3541 6.08325 15.5208 6.08325 17.875V32.125C6.08325 34.4583 7.33325 36.625 9.35408 37.8125L21.7291 44.9583C23.7499 46.125 26.2499 46.125 28.2916 44.9583L40.6666 37.8125C42.6874 36.6458 43.9374 34.4791 43.9374 32.125V17.875C43.9166 15.5208 42.6666 13.375 40.6458 12.1875ZM24.9999 15.2916C27.6874 15.2916 29.8541 17.4583 29.8541 20.1458C29.8541 22.8333 27.6874 25 24.9999 25C22.3124 25 20.1458 22.8333 20.1458 20.1458C20.1458 17.4791 22.3124 15.2916 24.9999 15.2916ZM30.5833 34.7083H19.4166C17.7291 34.7083 16.7499 32.8333 17.6874 31.4375C19.1041 29.3333 21.8541 27.9166 24.9999 27.9166C28.1458 27.9166 30.8958 29.3333 32.3124 31.4375C33.2499 32.8125 32.2499 34.7083 30.5833 34.7083Z" fill="#EF5DA8"/>
</svg>
