<svg width="50" height="50" viewBox="0 0 50 50" fill="none" xmlns="http://www.w3.org/2000/svg">
<path d="M35.0627 32.5833C36.4585 31.6666 38.2918 32.6666 38.2918 34.3333V37.0208C38.2918 39.6666 36.2293 42.5 33.7502 43.3333L27.1043 45.5416C25.9377 45.9375 24.0418 45.9375 22.896 45.5416L16.2502 43.3333C13.7502 42.5 11.7085 39.6666 11.7085 37.0208V34.3125C11.7085 32.6666 13.5418 31.6666 14.9168 32.5625L19.2085 35.3541C20.8543 36.4583 22.9377 37 25.021 37C27.1043 37 29.1877 36.4583 30.8335 35.3541L35.0627 32.5833Z" fill="#00B87C"/>
<path d="M41.625 13.4584L29.1459 5.27087C26.8959 3.79171 23.1875 3.79171 20.9375 5.27087L8.39587 13.4584C4.37504 16.0625 4.37504 21.9584 8.39587 24.5834L11.7292 26.75L20.9375 32.75C23.1875 34.2292 26.8959 34.2292 29.1459 32.75L38.2917 26.75L41.1459 24.875V31.25C41.1459 32.1042 41.8542 32.8125 42.7084 32.8125C43.5625 32.8125 44.2709 32.1042 44.2709 31.25V21C45.1042 18.3125 44.25 15.1875 41.625 13.4584Z" fill="#00B87C"/>
</svg>
